<svg xmlns="http://www.w3.org/2000/svg" xmlns:xlink="http://www.w3.org/1999/xlink" version="1.1" x="0px" y="0px" viewBox="0 0 1000 1250" enable-background="new 0 0 1000 1000" xml:space="preserve"><path d="M876.5,662.5"/><g><g><path fill="#000000" d="M252.542,363.625h504.917c19.604,0,35.5-15.912,35.5-35.5c0-19.622-15.896-35.5-35.5-35.5H252.542    c-19.605,0-35.5,15.878-35.5,35.5C217.042,347.713,232.937,363.625,252.542,363.625z"/></g><g><path fill="#000000" d="M757.459,452.236H252.542c-19.605,0-35.5,15.913-35.5,35.5c0,19.622,15.895,35.5,35.5,35.5h504.917    c19.604,0,35.5-15.878,35.5-35.5C792.959,468.149,777.063,452.236,757.459,452.236z"/></g><g><path fill="#000000" d="M757.459,611.883H252.542c-19.605,0-35.5,15.878-35.5,35.5c0,19.587,15.895,35.5,35.5,35.5h504.917    c19.604,0,35.5-15.913,35.5-35.5C792.959,627.761,777.063,611.883,757.459,611.883z"/></g></g><text x="0" y="1015" fill="#000000" font-size="5px" font-weight="bold" font-family="'Helvetica Neue', Helvetica, Arial-Unicode, Arial, Sans-serif">Created by Kirill Zorenkov</text><text x="0" y="1020" fill="#000000" font-size="5px" font-weight="bold" font-family="'Helvetica Neue', Helvetica, Arial-Unicode, Arial, Sans-serif">from the Noun Project</text></svg>